<svg xmlns="http://www.w3.org/2000/svg" viewBox="0 0 64.17 90.28"><defs><style>.cls-1,.cls-2{fill:none;stroke-miterlimit:10;}.cls-1{stroke:#f85823;stroke-width:1.19px;}.cls-2{stroke:#a94044;stroke-width:0.61px;}.cls-3{fill:#f35a27;}</style></defs><title>16</title><g id="Capa_2" data-name="Capa 2"><g id="Capa_1-2" data-name="Capa 1"><rect class="cls-1" x="0.6" y="0.6" width="62.97" height="89.08" rx="12.2"/><rect class="cls-2" x="2.6" y="8.29" width="58.96" height="11.96" rx="5.44"/><rect class="cls-2" x="2.6" y="23.38" width="58.96" height="11.96" rx="5.44"/><rect class="cls-2" x="2.6" y="38.47" width="58.96" height="11.96" rx="5.44"/><rect class="cls-2" x="2.6" y="53.56" width="58.96" height="11.96" rx="5.44"/><circle class="cls-3" cx="15.97" cy="14.46" r="4.57"/><circle class="cls-3" cx="32.87" cy="14.46" r="4.57"/><circle class="cls-3" cx="49.99" cy="14.46" r="4.57"/><circle class="cls-3" cx="15.97" cy="29.55" r="4.57"/><circle class="cls-3" cx="32.87" cy="29.55" r="4.57"/><circle class="cls-3" cx="49.99" cy="29.55" r="4.57"/><circle class="cls-3" cx="15.97" cy="44.64" r="4.57"/><circle class="cls-3" cx="32.87" cy="44.64" r="4.57"/><circle class="cls-3" cx="49.99" cy="44.64" r="4.57"/><circle class="cls-3" cx="15.97" cy="59.74" r="4.57"/><circle class="cls-3" cx="32.87" cy="59.74" r="4.57"/><circle class="cls-3" cx="49.99" cy="59.74" r="4.57"/><rect class="cls-2" x="2.6" y="69.88" width="58.96" height="11.96" rx="5.44"/><circle class="cls-3" cx="15.97" cy="76.05" r="4.57"/><circle class="cls-3" cx="32.87" cy="76.05" r="4.57"/><circle class="cls-3" cx="49.99" cy="76.05" r="4.57"/></g></g></svg>