<svg xmlns="http://www.w3.org/2000/svg" viewBox="0 0 351.6 73.75"><defs><style>.cls-1,.cls-2,.cls-4{fill:none;stroke-miterlimit:10;}.cls-1,.cls-4{stroke:#f85823;}.cls-1{stroke-width:1.35px;}.cls-2{stroke:#a94044;stroke-width:0.61px;}.cls-3{fill:#f35a27;}.cls-4{stroke-width:1.19px;}.cls-5{fill:#f85823;}</style></defs><title>17</title><g id="Layer_2" data-name="Layer 2"><g id="Layer_1-2" data-name="Layer 1"><rect class="cls-1" x="238.16" y="0.68" width="112.77" height="72.4" rx="12.2"/><rect class="cls-2" x="2.99" y="18.62" width="93.15" height="11.96" rx="5.44"/><rect class="cls-2" x="2.99" y="33.71" width="93.15" height="11.96" rx="5.44"/><rect class="cls-2" x="2.99" y="48.8" width="93.15" height="11.96" rx="5.44"/><circle class="cls-3" cx="15.47" cy="24.79" r="4.57"/><circle class="cls-3" cx="32.38" cy="24.79" r="4.57"/><circle class="cls-3" cx="49.5" cy="24.79" r="4.57"/><circle class="cls-3" cx="66.58" cy="24.79" r="4.57"/><circle class="cls-3" cx="83.33" cy="24.79" r="4.57"/><circle class="cls-3" cx="15.47" cy="39.88" r="4.57"/><circle class="cls-3" cx="32.38" cy="39.88" r="4.57"/><circle class="cls-3" cx="49.5" cy="39.88" r="4.57"/><circle class="cls-3" cx="66.58" cy="39.88" r="4.57"/><circle class="cls-3" cx="83.33" cy="39.88" r="4.57"/><circle class="cls-3" cx="15.47" cy="54.97" r="4.57"/><circle class="cls-3" cx="32.38" cy="54.97" r="4.57"/><circle class="cls-3" cx="49.5" cy="54.97" r="4.57"/><circle class="cls-3" cx="66.58" cy="54.97" r="4.57"/><circle class="cls-3" cx="83.33" cy="54.97" r="4.57"/><rect class="cls-4" x="136.6" y="10.93" width="62.97" height="58.03" rx="12.2"/><rect class="cls-2" x="138.6" y="18.62" width="58.96" height="11.96" rx="5.44"/><rect class="cls-2" x="138.6" y="33.71" width="58.96" height="11.96" rx="5.44"/><rect class="cls-2" x="138.6" y="48.8" width="58.96" height="11.96" rx="5.44"/><circle class="cls-3" cx="151.97" cy="24.8" r="4.57"/><circle class="cls-3" cx="168.86" cy="24.8" r="4.57"/><circle class="cls-3" cx="185.99" cy="24.8" r="4.57"/><circle class="cls-3" cx="151.97" cy="39.89" r="4.57"/><circle class="cls-3" cx="168.86" cy="39.89" r="4.57"/><circle class="cls-3" cx="185.99" cy="39.89" r="4.57"/><circle class="cls-3" cx="151.97" cy="54.98" r="4.57"/><circle class="cls-3" cx="168.86" cy="54.98" r="4.57"/><circle class="cls-3" cx="185.99" cy="54.98" r="4.57"/><rect class="cls-5" x="110.69" y="34.03" width="12.79" height="1.83" rx="0.83"/><rect class="cls-5" x="110.69" y="37.89" width="12.79" height="1.83" rx="0.83"/><path class="cls-5" d="M224.63,35.34h-2.91V32.41a1.29,1.29,0,0,0-1.28-1.28h-.32a1.28,1.28,0,0,0-1.28,1.28v2.93h-2.92a1.28,1.28,0,0,0-1.28,1.28v.31a1.27,1.27,0,0,0,1.26,1.28h2.94v2.91a1.27,1.27,0,0,0,1.26,1.28h.33a1.3,1.3,0,0,0,1.29-1.29V38.21h2.91a1.28,1.28,0,0,0,1.28-1.29v-.31a1.27,1.27,0,0,0-1.27-1.28Z"/><rect class="cls-4" x="0.6" y="10.93" width="97.94" height="57.73" rx="6.26"/></g></g></svg>