<svg xmlns="http://www.w3.org/2000/svg" viewBox="0 0 304.72 304.72"><defs><style>.cls-1{fill:#feffa2;stroke-linecap:round;stroke-linejoin:round;stroke-width:4.72px;}.cls-1,.cls-2{stroke:#9f6c18;}.cls-2{fill:#4d1f01;stroke-width:4.72px;}.cls-2,.cls-3{stroke-miterlimit:10;}.cls-3{fill:#e16000;stroke:#a34200;stroke-width:1.45px;}</style></defs><title>4</title><g id="Capa_2" data-name="Capa 2"><g id="Capa_1-2" data-name="Capa 1"><path class="cls-1" d="M152.36,152.36l75-129.91a151.7,151.7,0,0,1,54.66,55Z"/><path class="cls-1" d="M152.36,152.36V2.36a151.58,151.58,0,0,1,74.86,20.33Z"/><path class="cls-2" d="M152.36,152.36l129.9-75a151.7,151.7,0,0,1,19.82,75Z"/><path class="cls-1" d="M152.36,152.36h150A151.73,151.73,0,0,1,282,227.22Z"/><path class="cls-1" d="M152.36,152.36l129.9,75a151.7,151.7,0,0,1-55,54.66Z"/><path class="cls-1" d="M152.36,152.36l75,129.9a151.7,151.7,0,0,1-75,19.82Z"/><path class="cls-1" d="M152.36,152.36v150A151.81,151.81,0,0,1,77.49,282Z"/><path class="cls-1" d="M152.36,152.36l-75,129.9a151.63,151.63,0,0,1-54.67-55Z"/><path class="cls-1" d="M152.36,152.36l-129.91,75a151.7,151.7,0,0,1-19.82-75Z"/><path class="cls-1" d="M152.36,152.36H2.36A151.66,151.66,0,0,1,22.69,77.49Z"/><path class="cls-1" d="M152.36,152.36l-129.91-75a151.63,151.63,0,0,1,55-54.67Z"/><path class="cls-1" d="M152.36,152.36l-75-129.91a151.7,151.7,0,0,1,75-19.82Z"/><circle class="cls-3" cx="122.28" cy="28.67" r="12.25"/><circle class="cls-3" cx="74.03" cy="50.18" r="12.25"/><circle class="cls-3" cx="39.26" cy="89.01" r="12.25"/><circle class="cls-3" cx="27.01" cy="134.21" r="12.25"/><circle class="cls-3" cx="34.55" cy="191.29" r="12.25"/><circle class="cls-3" cx="57.44" cy="238.81" r="12.25"/><circle class="cls-3" cx="100.75" cy="266.05" r="12.25"/><circle class="cls-3" cx="152.19" cy="276.05" r="12.25"/><circle class="cls-3" cx="201.73" cy="266.05" r="12.25"/><circle class="cls-3" cx="243.6" cy="238.67" r="12.25"/><circle class="cls-3" cx="267.51" cy="190.71" r="12.25"/><circle class="cls-3" cx="277.07" cy="134.21" r="12.25"/><circle class="cls-3" cx="264.82" cy="88.86" r="12.25"/><circle class="cls-3" cx="231.5" cy="50.18" r="12.25"/><circle class="cls-3" cx="176.89" cy="28.67" r="12.25"/></g></g></svg>