<svg xmlns="http://www.w3.org/2000/svg" viewBox="0 0 303.85 306.06"><defs><style>.cls-1{fill:#feffa2;}.cls-2{fill:#4d1f01;}.cls-3{fill:none;stroke:#9f6c18;stroke-linecap:round;stroke-linejoin:round;stroke-width:4.71px;}.cls-4{fill:#e16000;stroke:#a34200;stroke-miterlimit:10;stroke-width:1.45px;}</style></defs><title>7</title><g id="Capa_2" data-name="Capa 2"><g id="Capa_1-2" data-name="Capa 1"><ellipse class="cls-1" cx="152.78" cy="153.03" rx="149.57" ry="150.67"/><path class="cls-2" d="M152.78,152.9l147.86.13c1.72,45.59-35.51,146-145.08,148.37l-2.61.71Z"/><line class="cls-3" x1="152.78" y1="2.36" x2="152.78" y2="303.67"/><circle class="cls-4" cx="122.74" cy="29.47" r="12.24"/><circle class="cls-4" cx="74.54" cy="50.96" r="12.24"/><circle class="cls-4" cx="39.81" cy="89.75" r="12.24"/><circle class="cls-4" cx="27.57" cy="134.9" r="12.24"/><circle class="cls-4" cx="35.09" cy="191.92" r="12.24"/><circle class="cls-4" cx="57.96" cy="239.39" r="12.24"/><circle class="cls-4" cx="101.23" cy="266.6" r="12.24"/><circle class="cls-4" cx="152.61" cy="276.59" r="12.24"/><circle class="cls-4" cx="202.11" cy="266.6" r="12.24"/><circle class="cls-4" cx="243.94" cy="239.25" r="12.24"/><circle class="cls-4" cx="267.82" cy="191.34" r="12.24"/><circle class="cls-4" cx="277.37" cy="134.9" r="12.24"/><circle class="cls-4" cx="265.13" cy="89.6" r="12.24"/><circle class="cls-4" cx="231.84" cy="50.96" r="12.24"/><circle class="cls-4" cx="177.29" cy="29.47" r="12.24"/><line class="cls-3" x1="300.64" y1="153.03" x2="3.21" y2="153.03"/><ellipse class="cls-3" cx="151.93" cy="153.03" rx="149.57" ry="150.67"/></g></g></svg>