<svg xmlns="http://www.w3.org/2000/svg" viewBox="0 0 304.53 306.74"><defs><style>.cls-1{fill:#feffa2;}.cls-1,.cls-2{stroke:#9f6c18;stroke-linecap:round;stroke-linejoin:round;stroke-width:4.72px;}.cls-2{fill:none;}.cls-3{fill:#4d1f01;}.cls-4{fill:#e16000;stroke:#a34200;stroke-miterlimit:10;stroke-width:1.45px;}</style></defs><title>6</title><g id="Capa_2" data-name="Capa 2"><g id="Capa_1-2" data-name="Capa 1"><ellipse class="cls-1" cx="152.26" cy="153.37" rx="149.9" ry="151.01"/><line class="cls-2" x1="152.26" y1="2.36" x2="152.26" y2="304.34"/><line class="cls-2" x1="46.58" y1="259.04" x2="258.28" y2="47.33"/><path class="cls-3" d="M258.28,260.13S305.77,215,302.17,153.37L154,155.07Z"/><circle class="cls-4" cx="122.15" cy="29.54" r="12.27"/><circle class="cls-4" cx="73.85" cy="51.07" r="12.27"/><circle class="cls-4" cx="39.04" cy="89.94" r="12.27"/><circle class="cls-4" cx="26.77" cy="135.2" r="12.27"/><circle class="cls-4" cx="34.31" cy="192.35" r="12.27"/><circle class="cls-4" cx="57.23" cy="239.93" r="12.27"/><circle class="cls-4" cx="100.6" cy="267.19" r="12.27"/><circle class="cls-4" cx="152.09" cy="277.2" r="12.27"/><circle class="cls-4" cx="201.7" cy="267.19" r="12.27"/><circle class="cls-4" cx="243.62" cy="239.78" r="12.27"/><circle class="cls-4" cx="267.55" cy="191.77" r="12.27"/><circle class="cls-4" cx="277.12" cy="135.2" r="12.27"/><circle class="cls-4" cx="264.86" cy="89.8" r="12.27"/><circle class="cls-4" cx="231.5" cy="51.07" r="12.27"/><circle class="cls-4" cx="176.82" cy="29.54" r="12.27"/><line class="cls-2" x1="300.45" y1="153.37" x2="2.36" y2="153.37"/><line class="cls-2" x1="257.72" y1="258.81" x2="46.58" y2="47.67"/></g></g></svg>