<svg xmlns="http://www.w3.org/2000/svg" viewBox="0 0 304.72 306.94"><defs><style>.cls-1{fill:#feffa2;}.cls-1,.cls-2,.cls-3{stroke:#9f6c18;}.cls-1,.cls-2{stroke-linecap:round;stroke-linejoin:round;stroke-width:4.72px;}.cls-2{fill:none;}.cls-3{fill:#4d1f01;stroke-width:4.72px;}.cls-3,.cls-4{stroke-miterlimit:10;}.cls-4{fill:#e16000;stroke:#a34200;stroke-width:1.45px;}</style></defs><title>3</title><g id="Capa_2" data-name="Capa 2"><g id="Capa_1-2" data-name="Capa 1"><ellipse class="cls-1" cx="152.36" cy="153.47" rx="150" ry="151.11"/><polyline class="cls-2" points="152.36 2.36 152.36 155.24 23.12 230.2"/><polyline class="cls-2" points="54.64 38.83 152.36 155.24 4.09 130.46"/><path class="cls-3" d="M300.5,129.64l-148.14,25.6L250.08,38.83S290.88,69.05,300.5,129.64Z"/><polyline class="cls-2" points="101.78 295.76 152.36 155.24 201.83 296.16"/><line class="cls-2" x1="152.36" y1="155.24" x2="281.61" y2="230.2"/><circle class="cls-4" cx="122.23" cy="29.56" r="12.27"/><circle class="cls-4" cx="73.9" cy="51.1" r="12.27"/><circle class="cls-4" cx="39.06" cy="90" r="12.27"/><circle class="cls-4" cx="26.79" cy="135.29" r="12.27"/><circle class="cls-4" cx="34.33" cy="192.47" r="12.27"/><circle class="cls-4" cx="57.27" cy="240.08" r="12.27"/><circle class="cls-4" cx="100.66" cy="267.37" r="12.27"/><circle class="cls-4" cx="152.19" cy="277.38" r="12.27"/><circle class="cls-4" cx="201.83" cy="267.37" r="12.27"/><circle class="cls-4" cx="243.78" cy="239.94" r="12.27"/><circle class="cls-4" cx="267.72" cy="191.89" r="12.27"/><circle class="cls-4" cx="277.3" cy="135.29" r="12.27"/><circle class="cls-4" cx="265.03" cy="89.86" r="12.27"/><circle class="cls-4" cx="231.65" cy="51.1" r="12.27"/><circle class="cls-4" cx="176.94" cy="29.56" r="12.27"/></g></g></svg>