<svg xmlns="http://www.w3.org/2000/svg" viewBox="0 0 66.32 300"><defs><style>.cls-1{fill:#b2b2b2;}.cls-2{fill:#1d1d1b;}</style></defs><title>escalera</title><g id="Capa_2" data-name="Capa 2"><g id="Capa_1-2" data-name="Capa 1"><rect class="cls-1" x="2.7" y="2.27" width="7.7" height="296.36" rx="0.88"/><rect class="cls-1" x="55.86" y="2.27" width="7.7" height="296.36" rx="0.88"/><rect class="cls-1" x="2.7" y="269.67" width="60.86" height="5.16"/><rect class="cls-1" x="2.7" y="238.55" width="60.86" height="5.16"/><rect class="cls-1" x="2.7" y="207.44" width="60.86" height="5.16"/><rect class="cls-1" x="2.7" y="176.32" width="60.86" height="5.16"/><rect class="cls-1" x="2.7" y="145.21" width="60.86" height="5.16"/><rect class="cls-1" x="2.7" y="114.09" width="60.86" height="5.16"/><rect class="cls-1" x="2.7" y="82.98" width="60.86" height="5.16"/><rect class="cls-1" x="2.7" y="51.86" width="60.86" height="5.16"/><rect class="cls-1" x="2.7" y="20.75" width="60.86" height="5.16"/><rect class="cls-2" x="2.7" y="293.87" width="7.7" height="5.65"/><rect class="cls-2" x="55.86" y="293.87" width="7.7" height="5.65"/><rect class="cls-2" y="298.28" width="13.16" height="1.72" rx="0.54"/><rect class="cls-2" x="53.16" y="298.28" width="13.16" height="1.72" rx="0.54"/><rect class="cls-2" x="2.7" y="0.56" width="7.7" height="6.58"/><rect class="cls-2" x="55.86" y="0.56" width="7.7" height="6.58"/><rect class="cls-2" width="13.16" height="2" rx="0.54"/><rect class="cls-2" x="53.16" width="13.16" height="2" rx="0.54"/></g></g></svg>